<?xml version="1.0" encoding="utf-8"?>
<!-- Generator: Adobe Illustrator 24.0.3, SVG Export Plug-In . SVG Version: 6.00 Build 0)  -->
<svg version="1.1" id="Layer_1" xmlns="http://www.w3.org/2000/svg" xmlns:xlink="http://www.w3.org/1999/xlink" x="0px" y="0px"
	 viewBox="0 0 125 92" style="enable-background:new 0 0 125 92;" xml:space="preserve">
<style type="text/css">
	.st0{fill:#E6EEF4;}
	.st1{fill:url(#SVGID_1_);}
	.st2{fill:url(#SVGID_2_);}
	.st3{fill:url(#SVGID_3_);}
	.st4{fill:url(#SVGID_4_);}
	.st5{fill:url(#SVGID_5_);}
	.st6{fill:url(#SVGID_6_);}
	.st7{fill:url(#SVGID_7_);}
	.st8{fill:url(#SVGID_8_);}
</style>
<g>
	<circle class="st0" cx="41.9" cy="46" r="41.9"/>
</g>
<g>
	
		<linearGradient id="SVGID_1_" gradientUnits="userSpaceOnUse" x1="69.2211" y1="48" x2="118.7655" y2="48" gradientTransform="matrix(1 0 0 -1 0 94)">
		<stop  offset="0" style="stop-color:#F39D24"/>
		<stop  offset="1" style="stop-color:#F39D24"/>
	</linearGradient>
	<path class="st1" d="M117.8,30.5H70.2c-0.5,0-1,0.5-1,1v28.9c0,0.5,0.5,1,1,1h47.5c0.5,0,1-0.5,1-1v-29
		C118.7,30.9,118.3,30.5,117.8,30.5z M116.7,59.4H71.2V32.5h45.6L116.7,59.4L116.7,59.4z"/>
	
		<linearGradient id="SVGID_2_" gradientUnits="userSpaceOnUse" x1="74.7044" y1="48.0389" x2="113.2433" y2="48.0389" gradientTransform="matrix(1 0 0 -1 0 94)">
		<stop  offset="0" style="stop-color:#F39D24"/>
		<stop  offset="1" style="stop-color:#F39D24"/>
	</linearGradient>
	<path class="st2" d="M75.2,52.3c1.7,0.9,2.8,2.4,3.5,4.4c0.2,0.4,0.5,0.6,0.9,0.6h28.7c0.4,0,0.8-0.2,0.9-0.6
		c0.7-2.1,1.9-3.5,3.5-4.4c0.3-0.2,0.5-0.5,0.5-0.9V40.4c0-0.4-0.2-0.7-0.5-0.9c-1.6-0.9-2.8-2.4-3.5-4.3c-0.2-0.4-0.5-0.6-0.9-0.6
		H79.6c-0.4,0-0.8,0.2-0.9,0.6c-0.7,2-1.9,3.5-3.5,4.3c-0.3,0.2-0.5,0.5-0.5,0.9v11.1C74.7,51.8,74.9,52.2,75.2,52.3z M111.3,41v10
		c-1.7,1-2.9,2.5-3.7,4.4h-7.9c3.2-2,5.3-5.4,5.3-9.4s-2.2-7.5-5.3-9.4h7.9C108.4,38.4,109.6,39.9,111.3,41z M94,55
		c-5,0-9.1-4.1-9.1-9.1s4.1-9.1,9.1-9.1c5,0,9.2,4.1,9.2,9.1S99,55,94,55z M76.6,41c1.6-1,2.9-2.5,3.7-4.5h7.9
		c-3.2,2-5.3,5.4-5.3,9.4s2.1,7.5,5.3,9.4h-7.9c-0.8-2-2.1-3.4-3.7-4.5V41z"/>
	
		<linearGradient id="SVGID_3_" gradientUnits="userSpaceOnUse" x1="89.4521" y1="48.0583" x2="98.4497" y2="48.0583" gradientTransform="matrix(1 0 0 -1 0 94)">
		<stop  offset="0" style="stop-color:#F39D24"/>
		<stop  offset="1" style="stop-color:#F39D24"/>
	</linearGradient>
	<path class="st3" d="M95.1,45.2V42c0.5,0.2,1.1,0.6,1.1,1.2h2c0-1.6-1.5-2.8-3.1-3.2v-1.3h-2v1.2c-1,0.2-2,0.5-2.7,1.2
		c-1,1-1.3,2.6-0.7,3.8c0.5,1.1,1.9,2,3.4,2.1v3.2c-0.6-0.2-1.4-0.7-1.4-1.3h-2c0,1.8,1.6,3,3.3,3.3h0.1v1.1h2v-1.2
		c0.9-0.2,1.6-0.5,2.3-1.1c1-1,1.3-2.6,0.8-3.8C97.9,46.6,97,45.6,95.1,45.2z M91.5,43.9c-0.2-0.4-0.1-1,0.4-1.4
		c0.3-0.3,0.8-0.5,1.2-0.6V45C92.4,44.8,91.7,44.4,91.5,43.9z M96.1,49.6c-0.2,0.2-0.5,0.4-0.9,0.5v-2.9c0.5,0.2,1.1,0.4,1.3,0.9
		C96.6,48.5,96.4,49.2,96.1,49.6z"/>
	
		<linearGradient id="SVGID_4_" gradientUnits="userSpaceOnUse" x1="55.9211" y1="56.0111" x2="65.8987" y2="56.0111" gradientTransform="matrix(1 0 0 -1 0 94)">
		<stop  offset="0" style="stop-color:#F39D24"/>
		<stop  offset="1" style="stop-color:#F39D24"/>
	</linearGradient>
	<rect x="55.9" y="37" class="st4" width="10" height="2"/>
	
		<linearGradient id="SVGID_5_" gradientUnits="userSpaceOnUse" x1="60.86" y1="50.45" x2="65.888" y2="50.45" gradientTransform="matrix(1 0 0 -1 0 94)">
		<stop  offset="0" style="stop-color:#F39D24"/>
		<stop  offset="1" style="stop-color:#F39D24"/>
	</linearGradient>
	<rect x="60.9" y="42.6" class="st5" width="5" height="2"/>
	
		<linearGradient id="SVGID_6_" gradientUnits="userSpaceOnUse" x1="48.7655" y1="50.45" x2="57.2433" y2="50.45" gradientTransform="matrix(1 0 0 -1 0 94)">
		<stop  offset="0" style="stop-color:#F39D24"/>
		<stop  offset="1" style="stop-color:#F39D24"/>
	</linearGradient>
	<rect x="48.8" y="42.6" class="st6" width="8.5" height="2"/>
	
		<linearGradient id="SVGID_7_" gradientUnits="userSpaceOnUse" x1="53.0044" y1="44.9278" x2="65.8766" y2="44.9278" gradientTransform="matrix(1 0 0 -1 0 94)">
		<stop  offset="0" style="stop-color:#F39D24"/>
		<stop  offset="1" style="stop-color:#F39D24"/>
	</linearGradient>
	<rect x="53" y="48.1" class="st7" width="12.9" height="2"/>
	
		<linearGradient id="SVGID_8_" gradientUnits="userSpaceOnUse" x1="59.4501" y1="39.7556" x2="65.8923" y2="39.7556" gradientTransform="matrix(1 0 0 -1 0 94)">
		<stop  offset="0" style="stop-color:#F39D24"/>
		<stop  offset="1" style="stop-color:#F39D24"/>
	</linearGradient>
	<rect x="59.5" y="53.3" class="st8" width="6.5" height="2"/>
</g>
</svg>
