<?xml version="1.0" encoding="utf-8"?>
<!-- Generator: Adobe Illustrator 24.0.3, SVG Export Plug-In . SVG Version: 6.00 Build 0)  -->
<svg version="1.1" id="Layer_1" xmlns="http://www.w3.org/2000/svg" xmlns:xlink="http://www.w3.org/1999/xlink" x="0px" y="0px"
	 viewBox="0 0 125 92" style="enable-background:new 0 0 125 92;" xml:space="preserve">
<style type="text/css">
	.st0{fill:#E6EEF4;}
	.st1{fill:url(#SVGID_1_);}
	.st2{fill:url(#SVGID_2_);}
</style>
<g>
	<circle class="st0" cx="41.9" cy="46" r="41.9"/>
</g>
<g>
	
		<linearGradient id="SVGID_1_" gradientUnits="userSpaceOnUse" x1="53.5626" y1="48" x2="113.6275" y2="48" gradientTransform="matrix(1 0 0 -1 0 94)">
		<stop  offset="0" style="stop-color:#F39D24"/>
		<stop  offset="1" style="stop-color:#F39D24"/>
	</linearGradient>
	<path class="st1" d="M109.7,20.6H57.5c-2.1,0-3.9,1.8-3.9,3.9v33.9c0,2.2,1.8,3.9,3.9,3.9h30v5.2c0,2.2,1.8,3.9,3.9,3.9h13
		c2.2,0,3.9-1.8,3.9-3.9v-5.2h1.3c2.2,0,3.9-1.8,3.9-3.9V24.5C113.6,22.3,111.9,20.6,109.7,20.6z M56.2,34.9v-3.2l2-2h4l-5.2,5.2
		H56.2z M56.2,29.8v-0.1h0.1L56.2,29.8z M64,29.7h4l-5.2,5.2h-4L64,29.7z M69.9,29.7h4l-5.2,5.2h-4L69.9,29.7z M75.8,29.7h4
		l-5.2,5.2h-4L75.8,29.7z M81.6,29.7h4l-5.2,5.2h-4.1L81.6,29.7z M87.5,29.7h4l-5.2,5.2h-4L87.5,29.7z M93.4,29.7h4l-5.2,5.2h-4.1
		L93.4,29.7z M99.3,29.7h4L98,34.9H94L99.3,29.7z M105.2,29.7h4l-5.2,5.2h-4.1L105.2,29.7z M111,29.7L111,29.7v3.9l-1.3,1.3h-4
		L111,29.7z M57.5,23.2h52.2c0.7,0,1.3,0.6,1.3,1.3v2.6H56.2v-2.6C56.2,23.8,56.8,23.2,57.5,23.2z M105.8,67.6
		c0,0.7-0.6,1.3-1.3,1.3h-13c-0.7,0-1.3-0.6-1.3-1.3v-15h15.7L105.8,67.6L105.8,67.6z M101.9,49.9H94v-4.6c0-2.2,1.8-3.9,3.9-3.9
		c2.2,0,3.9,1.8,3.9,3.9L101.9,49.9L101.9,49.9z M109.7,59.7h-1.3v-8.5c0-0.7-0.6-1.3-1.3-1.3h-2.6v-4.6c0-3.6-2.9-6.5-6.5-6.5
		s-6.5,2.9-6.5,6.5v4.6h-2.6c-0.7,0-1.3,0.6-1.3,1.3v8.5h-30c-0.7,0-1.3-0.6-1.3-1.3V37.5H111v20.9C111,59.1,110.4,59.7,109.7,59.7z
		"/>
	
		<linearGradient id="SVGID_2_" gradientUnits="userSpaceOnUse" x1="95.9998" y1="33.6011" x2="99.917" y2="33.6011" gradientTransform="matrix(1 0 0 -1 0 94)">
		<stop  offset="0" style="stop-color:#F39D24"/>
		<stop  offset="1" style="stop-color:#F39D24"/>
	</linearGradient>
	<path class="st2" d="M97.9,58.4c-1.1,0-2,0.9-2,2s0.9,2,2,2c1.1,0,2-0.9,2-2S99,58.4,97.9,58.4z M97.9,61c-0.4,0-0.7-0.3-0.7-0.7
		s0.3-0.7,0.7-0.7s0.7,0.3,0.7,0.7S98.3,61,97.9,61z"/>
</g>
</svg>
