<?xml version="1.0" encoding="utf-8"?>
<!-- Generator: Adobe Illustrator 24.0.3, SVG Export Plug-In . SVG Version: 6.00 Build 0)  -->
<svg version="1.1" id="Layer_1" xmlns="http://www.w3.org/2000/svg" xmlns:xlink="http://www.w3.org/1999/xlink" x="0px" y="0px"
	 viewBox="0 0 125 92" style="enable-background:new 0 0 125 92;" xml:space="preserve">
<style type="text/css">
	.st0{fill:#E6EEF4;}
	.st1{fill:url(#SVGID_1_);}
	.st2{fill:url(#SVGID_2_);}
	.st3{fill:url(#SVGID_3_);}
	.st4{fill:url(#SVGID_4_);}
	.st5{fill:url(#SVGID_5_);}
	.st6{fill:url(#SVGID_6_);}
	.st7{fill:url(#SVGID_7_);}
	.st8{fill:url(#SVGID_8_);}
</style>
<g>
	<circle class="st0" cx="41.9" cy="46" r="41.9"/>
</g>
<g>
	
		<linearGradient id="SVGID_1_" gradientUnits="userSpaceOnUse" x1="64.3784" y1="49.3499" x2="72.9498" y2="49.3499" gradientTransform="matrix(1 0 0 -1 0 94)">
		<stop  offset="0" style="stop-color:#F39D24"/>
		<stop  offset="1" style="stop-color:#F39D24"/>
	</linearGradient>
	<path class="st1" d="M67.6,52.2v2.1h2.1v-2.1c1.8,0,3.2-1.4,3.2-3.2v-2.1c0-1.8-1.4-3.2-3.2-3.2h-2.1c-0.6,0-1.1-0.5-1.1-1.1v-2.1
		c0-0.6,0.5-1.1,1.1-1.1h2.1c0.6,0,1.1,0.5,1.1,1.1v1.1h2.1v-1.1c0-1.8-1.4-3.2-3.2-3.2V35h-2.1v2.1c-1.8,0-3.2,1.4-3.2,3.2v2.1
		c0,1.8,1.4,3.2,3.2,3.2h2.1c0.6,0,1.1,0.5,1.1,1.1v2.1c0,0.6-0.5,1.1-1.1,1.1h-2.1c-0.6,0-1.1-0.5-1.1-1.1v-1.1h-2.1v1.1
		C64.4,50.7,65.8,52.2,67.6,52.2z"/>
	
		<linearGradient id="SVGID_2_" gradientUnits="userSpaceOnUse" x1="47.2355" y1="47.2071" x2="111.5212" y2="47.2071" gradientTransform="matrix(1 0 0 -1 0 94)">
		<stop  offset="0" style="stop-color:#F39D24"/>
		<stop  offset="1" style="stop-color:#F39D24"/>
	</linearGradient>
	<path class="st2" d="M59.4,56.4h-7.9v2.1h11.6c3.9,1.5,8.2,1.4,12-0.4v17.5c0,0.6,0.5,1.1,1.1,1.1h34.3c0.6,0,1.1-0.5,1.1-1.1V17.9
		c0-0.6-0.5-1.1-1.1-1.1H76.2c-0.6,0-1.1,0.5-1.1,1.1v13.2c-3.8-1.8-8.1-1.9-12-0.4h-6.2v2.1h2.5c-1.5,1.2-2.8,2.6-3.7,4.3h-4.2v2.1
		h3.1c-0.5,1.4-0.9,2.8-1,4.3h-6.5v2.1h6.5c0.1,1.5,0.4,2.9,1,4.3h-7.5v2.1h8.5C56.7,53.8,57.9,55.3,59.4,56.4z M77.2,18.9h32.1
		v55.7H77.2V18.9z M68.7,31.8c2.2,0,4.5,0.6,6.4,1.7v22.2c-6.1,3.5-14,1.5-17.6-4.7c-3.6-6.2-1.4-14,4.7-17.5
		C64.2,32.4,66.4,31.8,68.7,31.8z"/>
	
		<linearGradient id="SVGID_3_" gradientUnits="userSpaceOnUse" x1="47.2355" y1="62.2071" x2="54.7355" y2="62.2071" gradientTransform="matrix(1 0 0 -1 0 94)">
		<stop  offset="0" style="stop-color:#F39D24"/>
		<stop  offset="1" style="stop-color:#F39D24"/>
	</linearGradient>
	<rect x="47.2" y="30.7" class="st3" width="7.5" height="2.1"/>
	
		<linearGradient id="SVGID_4_" gradientUnits="userSpaceOnUse" x1="47.2355" y1="36.4928" x2="49.3784" y2="36.4928" gradientTransform="matrix(1 0 0 -1 0 94)">
		<stop  offset="0" style="stop-color:#F39D24"/>
		<stop  offset="1" style="stop-color:#F39D24"/>
	</linearGradient>
	<rect x="47.2" y="56.4" class="st4" width="2.1" height="2.1"/>
	
		<linearGradient id="SVGID_5_" gradientUnits="userSpaceOnUse" x1="47.2355" y1="55.7785" x2="49.3784" y2="55.7785" gradientTransform="matrix(1 0 0 -1 0 94)">
		<stop  offset="0" style="stop-color:#F39D24"/>
		<stop  offset="1" style="stop-color:#F39D24"/>
	</linearGradient>
	<rect x="47.2" y="37.2" class="st5" width="2.1" height="2.1"/>
	
		<linearGradient id="SVGID_6_" gradientUnits="userSpaceOnUse" x1="79.3784" y1="50.4213" x2="107.2355" y2="50.4213" gradientTransform="matrix(1 0 0 -1 0 94)">
		<stop  offset="0" style="stop-color:#F39D24"/>
		<stop  offset="1" style="stop-color:#F39D24"/>
	</linearGradient>
	<path class="st6" d="M106.2,21.1H80.4c-0.6,0-1.1,0.5-1.1,1.1V65c0,0.6,0.5,1.1,1.1,1.1h25.7c0.6,0,1.1-0.5,1.1-1.1V22.2
		C107.2,21.5,106.8,21.1,106.2,21.1z M105.1,63.9H81.5V23.2h23.6V63.9z"/>
	
		<linearGradient id="SVGID_7_" gradientUnits="userSpaceOnUse" x1="90.0927" y1="23.6356" x2="98.6641" y2="23.6356" gradientTransform="matrix(1 0 0 -1 0 94)">
		<stop  offset="0" style="stop-color:#F39D24"/>
		<stop  offset="1" style="stop-color:#F39D24"/>
	</linearGradient>
	<rect x="90.1" y="69.3" class="st7" width="8.6" height="2.1"/>
	
		<linearGradient id="SVGID_8_" gradientUnits="userSpaceOnUse" x1="84.7355" y1="49.3499" x2="102.9498" y2="49.3499" gradientTransform="matrix(1 0 0 -1 0 94)">
		<stop  offset="0" style="stop-color:#F39D24"/>
		<stop  offset="1" style="stop-color:#F39D24"/>
	</linearGradient>
	<path class="st8" d="M85.8,47.9h4.9l-1.4,1.4c-0.4,0.4-0.4,1.1,0,1.5l0,0l3.2,3.2c0.4,0.4,1.1,0.4,1.5,0l0,0l8.6-8.6
		c0.4-0.4,0.4-1.1,0-1.5l0,0l-8.6-8.6c-0.4-0.4-1.1-0.4-1.5,0l0,0l-3.2,3.2c-0.4,0.4-0.4,1.1,0,1.5l0,0l1.4,1.4h-4.9
		c-0.6,0-1.1,0.5-1.1,1.1v4.3C84.7,47.4,85.2,47.9,85.8,47.9z M86.9,43.6h6.4c0.6,0,1.1-0.5,1.1-1.1c0-0.3-0.1-0.6-0.3-0.8l-2.5-2.5
		l1.7-1.7l7.1,7.1l-7.1,7.1L91.6,50l2.5-2.5c0.4-0.4,0.4-1.1,0-1.5c-0.2-0.2-0.5-0.3-0.8-0.3h-6.4L86.9,43.6L86.9,43.6z"/>
</g>
</svg>
