<?xml version="1.0" encoding="utf-8"?>
<!-- Generator: Adobe Illustrator 24.0.3, SVG Export Plug-In . SVG Version: 6.00 Build 0)  -->
<svg version="1.1" id="Layer_1" xmlns="http://www.w3.org/2000/svg" xmlns:xlink="http://www.w3.org/1999/xlink" x="0px" y="0px"
	 viewBox="0 0 125 92" style="enable-background:new 0 0 125 92;" xml:space="preserve">
<style type="text/css">
	.st0{fill:#E6EEF4;}
	.st1{fill:url(#SVGID_1_);}
	.st2{fill:url(#SVGID_2_);}
	.st3{fill:url(#SVGID_3_);}
	.st4{fill:url(#SVGID_4_);}
	.st5{fill:url(#SVGID_5_);}
	.st6{fill:url(#SVGID_6_);}
	.st7{fill:url(#SVGID_7_);}
	.st8{fill:url(#SVGID_8_);}
	.st9{fill:url(#SVGID_9_);}
	.st10{fill:url(#SVGID_10_);}
	.st11{fill:url(#SVGID_11_);}
	.st12{fill:url(#SVGID_12_);}
	.st13{fill:url(#SVGID_13_);}
	.st14{fill:url(#SVGID_14_);}
	.st15{fill:url(#SVGID_15_);}
</style>
<g>
	<circle class="st0" cx="41.9" cy="46" r="41.9"/>
</g>
<g>
	
		<linearGradient id="SVGID_1_" gradientUnits="userSpaceOnUse" x1="69.2487" y1="48" x2="93.7532" y2="48" gradientTransform="matrix(1 0 0 -1 0 94)">
		<stop  offset="0" style="stop-color:#F39D24"/>
		<stop  offset="1" style="stop-color:#F39D24"/>
	</linearGradient>
	<path class="st1" d="M81.5,33.7c-6.8,0-12.3,5.5-12.3,12.3s5.5,12.3,12.3,12.3S93.8,52.8,93.8,46S88.3,33.7,81.5,33.7z M81.5,44.9
		c2,0,3.6,1.6,3.6,3.6c0,1.6-1.1,3-2.6,3.5v0.7c0,0.5-0.4,1.1-1.1,1.1c-0.7,0-1.1-0.4-1.1-1.1V52c-1.5-0.4-2.6-1.9-2.6-3.5
		c0-0.5,0.4-1.1,1.1-1.1c0.5,0,1.1,0.4,1.1,1.1c0,0.9,0.7,1.5,1.5,1.5s1.5-0.7,1.5-1.5c0-0.9-0.5-1.4-1.4-1.4c-2,0-3.6-1.6-3.6-3.6
		c0-1.6,1.1-3,2.6-3.5v-0.7c0-0.5,0.4-1.1,1.1-1.1s1.1,0.4,1.1,1.1V40c1.5,0.4,2.6,1.9,2.6,3.5c0,0.5-0.4,1.1-1.1,1.1
		c-0.7,0-1.1-0.4-1.1-1.1c0-0.9-0.7-1.5-1.5-1.5c-0.9,0-1.5,0.7-1.5,1.5C80,44.2,80.6,44.9,81.5,44.9z"/>
	<g>
		
			<linearGradient id="SVGID_2_" gradientUnits="userSpaceOnUse" x1="81.5009" y1="70.2012" x2="116.5074" y2="70.2012" gradientTransform="matrix(1 0 0 -1 0 94)">
			<stop  offset="0" style="stop-color:#F39D24"/>
			<stop  offset="1" style="stop-color:#F39D24"/>
		</linearGradient>
		<path class="st2" d="M116.1,22.9l-14.4-11.7c-0.3-0.2-0.8-0.3-1.1-0.1c-0.4,0.2-0.7,0.5-0.7,1v4.6H82.6c-0.5,0-1.1,0.4-1.1,1.1
			c0,0.7,0.4,1.1,1.1,1.1h18.3c0.5,0,1.1-0.4,1.1-1.1v-3.5l11.8,9.5L102,33.3v-3.5c0-0.5-0.4-1.1-1.1-1.1H82.6
			c-0.5,0-1.1,0.4-1.1,1.1s0.4,1.1,1.1,1.1h17.2v4.6c0,0.4,0.2,0.8,0.7,1c0.3,0.2,0.8,0.1,1.1-0.1l14.5-11.7
			c0.2-0.2,0.4-0.5,0.4-0.9C116.5,23.5,116.4,23.1,116.1,22.9z"/>
		
			<linearGradient id="SVGID_3_" gradientUnits="userSpaceOnUse" x1="59.4031" y1="74.9404" x2="61.591" y2="74.9404" gradientTransform="matrix(1 0 0 -1 0 94)">
			<stop  offset="0" style="stop-color:#F39D24"/>
			<stop  offset="1" style="stop-color:#F39D24"/>
		</linearGradient>
		<path class="st3" d="M61.3,19.9c0.4-0.4,0.4-1.1,0-1.5s-1.1-0.4-1.5,0s-0.4,1.1,0,1.5C60.1,20.2,60.8,20.2,61.3,19.9z"/>
		
			<linearGradient id="SVGID_4_" gradientUnits="userSpaceOnUse" x1="64.6589" y1="75.0328" x2="79.4273" y2="75.0328" gradientTransform="matrix(1 0 0 -1 0 94)">
			<stop  offset="0" style="stop-color:#F39D24"/>
			<stop  offset="1" style="stop-color:#F39D24"/>
		</linearGradient>
		<path class="st4" d="M65.7,20.1h12.6c0.5,0,1.1-0.4,1.1-1.1c0-0.7-0.4-1.1-1.1-1.1H65.7c-0.5,0-1.1,0.4-1.1,1.1
			S65.2,20.1,65.7,20.1z"/>
		
			<linearGradient id="SVGID_5_" gradientUnits="userSpaceOnUse" x1="57.981" y1="70.5208" x2="68.5996" y2="70.5208" gradientTransform="matrix(1 0 0 -1 0 94)">
			<stop  offset="0" style="stop-color:#F39D24"/>
			<stop  offset="1" style="stop-color:#F39D24"/>
		</linearGradient>
		<path class="st5" d="M59.1,24.6h8.4c0.5,0,1.1-0.4,1.1-1.1s-0.4-1.1-1.1-1.1h-8.4c-0.5,0-1.1,0.4-1.1,1.1S58.4,24.6,59.1,24.6z"/>
		
			<linearGradient id="SVGID_6_" gradientUnits="userSpaceOnUse" x1="69.358" y1="66.2812" x2="75.6981" y2="66.2812" gradientTransform="matrix(1 0 0 -1 0 94)">
			<stop  offset="0" style="stop-color:#F39D24"/>
			<stop  offset="1" style="stop-color:#F39D24"/>
		</linearGradient>
		<path class="st6" d="M70.5,26.6c-0.5,0-1.1,0.4-1.1,1.1c0,0.5,0.4,1.1,1.1,1.1h4.2c0.5,0,1.1-0.4,1.1-1.1c0-0.5-0.4-1.1-1.1-1.1
			C74.6,26.6,70.5,26.6,70.5,26.6z"/>
		
			<linearGradient id="SVGID_7_" gradientUnits="userSpaceOnUse" x1="52.6206" y1="70.4378" x2="54.8085" y2="70.4378" gradientTransform="matrix(1 0 0 -1 0 94)">
			<stop  offset="0" style="stop-color:#F39D24"/>
			<stop  offset="1" style="stop-color:#F39D24"/>
		</linearGradient>
		<path class="st7" d="M54.5,24.3c0.4-0.4,0.4-1.1,0-1.5c-0.4-0.4-1.1-0.4-1.5,0s-0.4,1.1,0,1.5S54,24.7,54.5,24.3z"/>
		
			<linearGradient id="SVGID_8_" gradientUnits="userSpaceOnUse" x1="64.1071" y1="66.2763" x2="66.295" y2="66.2763" gradientTransform="matrix(1 0 0 -1 0 94)">
			<stop  offset="0" style="stop-color:#F39D24"/>
			<stop  offset="1" style="stop-color:#F39D24"/>
		</linearGradient>
		<path class="st8" d="M64.4,27c-0.4,0.4-0.4,1.1,0,1.5c0.4,0.4,1.1,0.4,1.5,0s0.4-1.1,0-1.5C65.5,26.5,64.9,26.5,64.4,27z"/>
	</g>
	
		<linearGradient id="SVGID_9_" gradientUnits="userSpaceOnUse" x1="46.4945" y1="25.7988" x2="81.5009" y2="25.7988" gradientTransform="matrix(1 0 0 -1 0 94)">
		<stop  offset="0" style="stop-color:#F39D24"/>
		<stop  offset="1" style="stop-color:#F39D24"/>
	</linearGradient>
	<path class="st9" d="M62.1,63.3h18.3c0.5,0,1.1-0.4,1.1-1.1c0-0.7-0.4-1.1-1.1-1.1H63.1v-4.6c0-0.4-0.2-0.8-0.7-1
		c-0.3-0.2-0.8-0.1-1.1,0.1L46.9,67.4c-0.3,0.1-0.4,0.4-0.4,0.8c0,0.4,0.1,0.7,0.4,0.9l14.5,11.7c0.3,0.2,0.8,0.3,1.1,0.1
		c0.3-0.2,0.7-0.5,0.7-1v-4.6h17.2c0.5,0,1.1-0.4,1.1-1.1s-0.4-1.1-1.1-1.1H62.1c-0.5,0-1.1,0.4-1.1,1.1v3.5l-11.8-9.5L61,58.7v3.5
		C61,62.7,61.5,63.3,62.1,63.3z"/>
	
		<linearGradient id="SVGID_10_" gradientUnits="userSpaceOnUse" x1="101.4109" y1="21.0596" x2="103.5987" y2="21.0596" gradientTransform="matrix(1 0 0 -1 0 94)">
		<stop  offset="0" style="stop-color:#F39D24"/>
		<stop  offset="1" style="stop-color:#F39D24"/>
	</linearGradient>
	<path class="st10" d="M101.7,72.1c-0.4,0.4-0.4,1.1,0,1.5c0.4,0.4,1.1,0.4,1.5,0c0.4-0.4,0.4-1.1,0-1.5
		C102.8,71.8,102.2,71.8,101.7,72.1z"/>
	
		<linearGradient id="SVGID_11_" gradientUnits="userSpaceOnUse" x1="83.4846" y1="20.9672" x2="98.253" y2="20.9672" gradientTransform="matrix(1 0 0 -1 0 94)">
		<stop  offset="0" style="stop-color:#F39D24"/>
		<stop  offset="1" style="stop-color:#F39D24"/>
	</linearGradient>
	<path class="st11" d="M97.3,71.9H84.6c-0.5,0-1.1,0.4-1.1,1.1s0.4,1.1,1.1,1.1h12.6c0.5,0,1.1-0.4,1.1-1.1S97.8,71.9,97.3,71.9z"/>
	
		<linearGradient id="SVGID_12_" gradientUnits="userSpaceOnUse" x1="94.4144" y1="25.4792" x2="105.033" y2="25.4792" gradientTransform="matrix(1 0 0 -1 0 94)">
		<stop  offset="0" style="stop-color:#F39D24"/>
		<stop  offset="1" style="stop-color:#F39D24"/>
	</linearGradient>
	<path class="st12" d="M103.9,67.4h-8.4c-0.5,0-1.1,0.4-1.1,1.1c0,0.5,0.4,1.1,1.1,1.1h8.4c0.5,0,1.1-0.4,1.1-1.1
		S104.6,67.4,103.9,67.4z"/>
	
		<linearGradient id="SVGID_13_" gradientUnits="userSpaceOnUse" x1="87.2964" y1="29.7189" x2="93.6365" y2="29.7189" gradientTransform="matrix(1 0 0 -1 0 94)">
		<stop  offset="0" style="stop-color:#F39D24"/>
		<stop  offset="1" style="stop-color:#F39D24"/>
	</linearGradient>
	<path class="st13" d="M88.4,63.2c-0.5,0-1.1,0.4-1.1,1.1c0,0.5,0.4,1.1,1.1,1.1h4.2c0.5,0,1.1-0.4,1.1-1.1c0-0.5-0.4-1.1-1.1-1.1
		H88.4z"/>
	
		<linearGradient id="SVGID_14_" gradientUnits="userSpaceOnUse" x1="108.1934" y1="25.5472" x2="110.3812" y2="25.5472" gradientTransform="matrix(1 0 0 -1 0 94)">
		<stop  offset="0" style="stop-color:#F39D24"/>
		<stop  offset="1" style="stop-color:#F39D24"/>
	</linearGradient>
	<path class="st14" d="M108.5,67.7c-0.4,0.4-0.4,1.1,0,1.5c0.4,0.4,1.1,0.4,1.5,0c0.4-0.4,0.4-1.1,0-1.5
		C109.6,67.3,108.8,67.3,108.5,67.7z"/>
	
		<linearGradient id="SVGID_15_" gradientUnits="userSpaceOnUse" x1="96.7068" y1="29.7237" x2="98.8948" y2="29.7237" gradientTransform="matrix(1 0 0 -1 0 94)">
		<stop  offset="0" style="stop-color:#F39D24"/>
		<stop  offset="1" style="stop-color:#F39D24"/>
	</linearGradient>
	<path class="st15" d="M98.6,65c0.4-0.4,0.4-1.1,0-1.5c-0.3-0.4-1.1-0.4-1.5,0c-0.4,0.3-0.4,1.1,0,1.5C97.5,65.5,98.1,65.5,98.6,65z
		"/>
</g>
</svg>
